<?xml version="1.0" encoding="UTF-8"?>
<svg id="Layer_1" xmlns="http://www.w3.org/2000/svg" version="1.1" viewBox="0 0 2641 735">
  <!-- Generator: Adobe Illustrator 29.8.1, SVG Export Plug-In . SVG Version: 2.1.1 Build 2)  -->
  <defs>
    <style>
      .st0 {
        fill: #9b4f2e;
      }

      .st1 {
        fill: #9a4f2e;
      }
    </style>
  </defs>
  <g>
    <path class="st0" d="M487.9,272.7v19.5c0,4.7-3.8,8.6-8.6,8.6h-254.8c-4.8,0-8.6-3.8-8.6-8.6v-19.5c0-4.7,3.8-8.6,8.6-8.6h254.8c4.7,0,8.6,3.8,8.6,8.6Z"/>
    <path class="st0" d="M262.5,481.7c20.3,23.8,50.8,26.5,61.4,27.5,27,2.4,68.4-4.5,83.7-33,1-1.9,13.9-26.6.7-41.5-11.2-12.6-35.4-12-42.1-2.8-7.4,10.2,9.7,26.8,2.2,36-6,7.6-24.6,5.3-36.3-2.7-13.9-9.6-20.2-28.9-14-43.9,6.4-15.6,23.7-20.7,27.9-22,18.2-5.4,25.6,3,69.8,11,30.5,5.5,43.7,4.6,55.8,0,3-1.1,5.7-2.4,8.2-3.8,3-1.6,5.6-3.3,7.9-4.9v126c0,4.7-3.8,8.6-8.6,8.6h-36.5c4.3-4.5,14.6-17,15-34.9.2-6.9-1.2-12.8-2.6-17.1-.9,5.5-2.7,11.3-5.7,17.1-6.1,11.6-15.5,19.5-24.9,24.8-12.1,6.9-26,10.1-39.9,10.1h-160.1c-4.7,0-8.6-3.8-8.6-8.6v-202.6c0-3.7,2.4-6.9,5.7-8,.9-.4,1.9-.5,2.9-.5h254.8c4.7,0,8.5,3.8,8.5,8.6v26.8c0,1.1-.3,2.8-1.1,4.6-1,2.2-2.8,4.6-6.8,6.9-10.8,6.2-21.9,6.1-21.9,6.1-57,4.8-83-29.2-137.1-24.9-12.9,1-29.3,2.6-44.7,13.7-33.6,24.3-45,87.3-13.9,123.6Z"/>
  </g>
  <g>
    <path class="st0" d="M841.1,487.6c-31.6,21.8-64.3,32-102.9,32-73.1,0-137.7-47.1-137.7-122.6s78-116.3,126.5-116.3,94.2,13.4,113.8,29.2l-9.8,29.9c-.7,2.1-2.1,4.9-3.5,4.9s-1.1-2.5-3.2-7.4c-12.3-29.2-49.9-47.8-86.4-47.8-69.9,0-99.8,48.5-99.8,112.4s39.3,108.9,103.6,108.9,64.6-8.1,65.7-37.2v-29.9c0-35.8-5.3-36.2-40.1-44.3-.4,0-1.1-.7-1.1-1.4,0-2.1,2.8-2.1,7-2.1,16.9,0,33.7,1.4,50.6,1.4s16.9-1.4,30.2-1.4c4.6,0,7.4,0,7.4,2.8s-1.1,1.8-3.2,2.1c-10.2,3.2-17.2,7-17.2,18.6v68.2Z"/>
    <path class="st0" d="M886.8,399.4c0-74.5,65.3-118.7,131.4-118.7s131.4,44.3,131.4,118.7-65.3,120.2-131.4,120.2-131.4-44.3-131.4-120.2ZM1112,402.6c0-66-27.1-113.1-93.8-113.1s-93.8,47.1-93.8,113.1,27.1,108.2,93.8,108.2,93.8-47.1,93.8-108.2Z"/>
    <path class="st0" d="M1197,334.8c0-31.6-4.6-37.6-13.4-41.8-2.1-1.4-3.9-2.1-3.9-3.9s1.1-2.8,10.5-2.8h107.9c87.1,0,130.7,52.7,130.7,109.3s-45.7,111.4-115.9,117c-8.8.7-17.9,1.1-27.1,1.1s-24.9-1.1-41.1-1.1h-40.1c-7.4,0-13.7.4-18.6.7-4.6.4-8.1.7-10.2.7s-2.5-.4-2.5-1.1c0-1.4,1.4-2.1,3.9-3.5,18.6-10.5,19.7-18.6,19.7-55.2v-119.4ZM1227.2,447.9c0,43.6,6.7,53.8,21.8,55.2,14.4,1.4,24.2,1.8,32.7,1.8s17.6-.4,26.3-1.1c49.9-4.2,83.3-30.6,83.3-108.6s-34.1-100.1-105-100.1h-59v152.8Z"/>
    <path class="st0" d="M1477,321.8c0-11.2-.7-26.3-13-30.9-1.4-.7-2.5-1.1-2.5-2.5,0-2.1,1.1-2.1,5.6-2.1,4.2,0,11.9,1.4,24.9,1.4s16.5-1.4,24.6-1.4c1.4,0,6,0,6,1.8s-.7,2.5-2.5,2.8c-11.9,3.5-13,17.2-13,30.9v65.7h154.2v-65.7c0-13.7-1.1-27.4-13-30.9-1.8-.4-2.5-1.4-2.5-2.8s4.6-1.8,6-1.8c8.1,0,16.5,1.4,24.6,1.4,13,0,20.7-1.4,24.9-1.4,4.6,0,5.6,0,5.6,2.1s-1.1,1.8-2.5,2.5c-12.3,4.6-13,19.7-13,30.9v123.7c0,22.5,1.1,53.4,16.5,63.2,2.5,1.8,4.9,2.8,4.9,3.5,0,1.1-1.4,1.4-4.2,1.4s-12.6-1.1-32.3-1.1-27.8,1.1-30.9,1.1-3.9-.4-3.9-1.1c0-1.1,1.1-2.1,3.9-3.2,15.8-7,15.8-32,15.8-63.9v-49.2h-154.2v49.2c0,32,0,56.9,15.8,63.9,2.8,1.1,3.9,2.1,3.9,3.2s-1.8,1.1-3.9,1.1c-3.2,0-14.1-1.1-30.9-1.1s-29.2,1.1-32.3,1.1-4.2-.4-4.2-1.4,2.5-1.8,4.9-3.5c15.5-9.8,16.5-40.8,16.5-63.2v-123.7Z"/>
    <path class="st0" d="M1804.8,402.9l-22.5,42.5c-7,13-15.5,31.3-15.5,45s3.5,11.6,8.8,15.5c4.2,3.2,9.8,3.9,9.8,6s-2.1,1.4-5.3,1.4c-8.4,0-16.5-.7-24.6-.7s-17.2.7-25.6.7-6.3,0-6.3-1.8,5.3-4.6,7.4-6.7c14.4-13.7,27.8-37.2,36.2-52l92.4-170c.7-1.4,1.4-2.1,2.5-2.1h.7c1.1,0,2.5,1.4,2.5,2.1l103.6,199.6c4.9,9.5,13.4,19.3,22.1,25.3,3.2,2.1,5.3,3.2,5.3,3.9s-.4,1.8-3.5,1.8c-10.2,0-22.1-.7-33-.7s-25.6.7-35.5.7-2.8-.4-2.8-1.1c0-2.1,3.2-2.5,6.7-4.2,3.2-1.8,6.3-4.9,6.3-12.6s-7.7-27.8-16.9-46l-22.8-46.4h-89.9ZM1851.5,318.3l-42.5,75.9h82.2l-39.7-75.9Z"/>
    <path class="st0" d="M2118.1,482.7c.4-1.8,1.1-3.5,2.1-3.5s1.4.4,1.8,1.4c5.6,19,17.9,28.1,37.6,28.1,36.2,0,38.3-49.2,38.3-74.8v-120.2c0-11.2-3.5-17.2-13-22.8-1.4-1.1-2.5-1.8-2.5-2.5,0-1.4,1.1-2.1,5.6-2.1,4.2,0,11.9,1.4,24.9,1.4s16.5-1.4,26.3-1.4c1.4,0,4.2,0,4.2,1.8s-1.1,1.8-2.5,2.5c-9.8,5.6-13,11.9-13,23.2v120.9c0,49.9-36.5,85-86.1,85s-22.8-1.8-32.7-7l8.8-29.9Z"/>
    <path class="st0" d="M2294.5,321.8c0-11.2-.7-26.3-13-30.9-1.4-.7-2.5-1.1-2.5-2.5,0-2.1,1.1-2.1,5.6-2.1,4.2,0,11.9,1.4,24.9,1.4s16.5-1.4,24.6-1.4c1.4,0,6,0,6,1.8s-.7,2.5-2.5,2.8c-11.9,3.5-13,17.2-13,30.9v123.7c0,32,0,56.9,15.8,63.9,2.8,1.1,3.9,2.1,3.9,3.2s-1.8,1.1-3.9,1.1c-3.2,0-14.1-1.1-30.9-1.1s-29.2,1.1-32.3,1.1-4.2-.4-4.2-1.4,2.5-1.8,4.9-3.5c15.5-9.8,16.5-40.8,16.5-63.2v-123.7Z"/>
  </g>
  <g>
    <g>
      <path class="st1" d="M2369.9,248.6h-9.1v-3.3h22v3.3h-9.1v23.3h-3.8v-23.3Z"/>
      <path class="st1" d="M2409.8,271.9v-19.4s-9.7,16.2-9.7,16.2h-1.8l-9.6-16v19.3h-3.6v-26.6h3.1l11.1,18.7,11-18.7h3.1v26.6s-3.6,0-3.6,0Z"/>
    </g>
    <path class="st1" d="M2387.1,296.5c-20.9,0-37.9-17-37.9-37.9s17-37.9,37.9-37.9,37.9,17,37.9,37.9-17,37.9-37.9,37.9ZM2387.1,223.3c-19.5,0-35.3,15.8-35.3,35.3s15.8,35.3,35.3,35.3,35.3-15.8,35.3-35.3-15.8-35.3-35.3-35.3Z"/>
  </g>
</svg>