<?xml version="1.0" encoding="UTF-8"?>
<svg id="Layer_1" xmlns="http://www.w3.org/2000/svg" version="1.1" viewBox="0 0 1920 1080">
  <!-- Generator: Adobe Illustrator 29.8.0, SVG Export Plug-In . SVG Version: 2.1.1 Build 160)  -->
  <defs>
    <style>
      .st0 {
        fill: #f3eee8;
      }
    </style>
  </defs>
  <path class="st0" d="M1328.5,194.8v52.8c0,12.8-10.4,23.2-23.2,23.2h-690.4c-12.9,0-23.3-10.4-23.3-23.2v-52.8c0-12.8,10.4-23.2,23.3-23.2h690.4c12.8,0,23.2,10.4,23.2,23.2Z"/>
  <path class="st0" d="M717.4,761c55.1,64.5,137.6,71.8,166.4,74.4,73.1,6.5,185.4-12.1,227-89.3,2.8-5.2,37.7-72.2,1.9-112.4-30.4-34.1-96-32.6-114-7.6-20,27.6,26.2,72.7,6,97.7-16.4,20.5-66.6,14.4-98.3-7.4-37.7-26-54.6-78.3-37.9-119.1,17.4-42.2,64.2-56.1,75.7-59.6,49.3-14.6,69.4,8,189.2,29.8,82.7,15,118.4,12.4,151.3,0,8-3,15.5-6.5,22.3-10.2,8-4.3,15.1-8.9,21.4-13.4v341.4c0,12.8-10.4,23.2-23.2,23.2h-98.9c11.5-12.3,39.5-46.2,40.7-94.7.4-18.8-3.1-34.7-7.1-46.4-2.5,14.8-7.2,30.6-15.5,46.4-16.5,31.4-42,52.8-67.5,67.2-32.9,18.6-70.4,27.4-108.2,27.4h-434c-12.9,0-23.3-10.4-23.3-23.3V336.2c0-10,6.5-18.7,15.5-21.8,2.5-1,5.1-1.4,7.8-1.4h690.5c12.8,0,23.2,10.4,23.2,23.2v72.7c-.2,3.1-.8,7.5-3,12.4-2.6,5.9-7.6,12.5-18.4,18.6-29.3,16.7-59.3,16.5-59.3,16.5-154.5,13-225-79.2-371.6-67.6-35.1,2.8-79.4,7-121.1,37.2-91,66-121.9,236.5-37.7,335Z"/>
</svg>