<?xml version="1.0" encoding="UTF-8"?>
<svg id="Layer_1" xmlns="http://www.w3.org/2000/svg" version="1.1" viewBox="0 0 1920 1080">
  <!-- Generator: Adobe Illustrator 29.8.0, SVG Export Plug-In . SVG Version: 2.1.1 Build 160)  -->
  <defs>
    <style>
      .st0 {
        fill: #9b4f2e;
      }

      .st1 {
        fill: #9a4f2e;
      }
    </style>
  </defs>
  <g>
    <g>
      <path class="st0" d="M455,788.8c-25.3,17.4-51.4,25.6-82.3,25.6-58.5,0-110.2-37.7-110.2-98.1s62.4-93,101.2-93,75.3,10.7,91.1,23.3l-7.9,23.9c-.6,1.7-1.7,3.9-2.8,3.9s-.8-2-2.5-5.9c-9.8-23.3-39.9-38.2-69.1-38.2-55.9,0-79.8,38.8-79.8,89.9s31.5,87.1,82.9,87.1,51.7-6.5,52.6-29.8v-23.9c0-28.7-4.2-28.9-32-35.4-.3,0-.8-.6-.8-1.1,0-1.7,2.2-1.7,5.6-1.7,13.5,0,27,1.1,40.5,1.1s13.5-1.1,24.2-1.1c3.7,0,5.9,0,5.9,2.2s-.8,1.4-2.5,1.7c-8.2,2.5-13.8,5.6-13.8,14.9v54.5Z"/>
      <path class="st0" d="M491.5,718.3c0-59.6,52.3-95,105.1-95s105.1,35.4,105.1,95-52.3,96.1-105.1,96.1-105.1-35.4-105.1-96.1ZM671.7,720.8c0-52.8-21.6-90.5-75-90.5s-75,37.7-75,90.5,21.6,86.6,75,86.6,75-37.7,75-86.6Z"/>
      <path class="st0" d="M739.7,666.6c0-25.3-3.7-30.1-10.7-33.4-1.7-1.1-3.1-1.7-3.1-3.1s.8-2.2,8.4-2.2h86.3c69.7,0,104.5,42.2,104.5,87.4s-36.5,89.1-92.7,93.6c-7,.6-14.3.8-21.6.8s-20-.8-32.9-.8h-32c-5.9,0-11,.3-14.9.6-3.7.3-6.5.6-8.2.6s-2-.3-2-.8c0-1.1,1.1-1.7,3.1-2.8,14.9-8.4,15.7-14.9,15.7-44.1v-95.6ZM763.8,757.1c0,34.8,5.3,43,17.4,44.1,11.5,1.1,19.4,1.4,26.1,1.4s14.1-.3,21.1-.8c39.9-3.4,66.6-24.4,66.6-86.8s-27.3-80.1-84-80.1h-47.2v122.2Z"/>
      <path class="st0" d="M963.7,656.2c0-9-.6-21.1-10.4-24.7-1.1-.6-2-.8-2-2,0-1.7.8-1.7,4.5-1.7,3.4,0,9.6,1.1,20,1.1s13.2-1.1,19.7-1.1c1.1,0,4.8,0,4.8,1.4s-.6,2-2,2.2c-9.6,2.8-10.4,13.8-10.4,24.7v52.6h123.4v-52.6c0-11-.8-21.9-10.4-24.7-1.4-.3-2-1.1-2-2.2s3.7-1.4,4.8-1.4c6.5,0,13.2,1.1,19.7,1.1,10.4,0,16.6-1.1,20-1.1,3.7,0,4.5,0,4.5,1.7s-.8,1.4-2,2c-9.8,3.7-10.4,15.7-10.4,24.7v98.9c0,18,.8,42.7,13.2,50.6,2,1.4,3.9,2.2,3.9,2.8,0,.8-1.1,1.1-3.4,1.1s-10.1-.8-25.9-.8-22.2.8-24.7.8-3.1-.3-3.1-.8c0-.8.8-1.7,3.1-2.5,12.6-5.6,12.6-25.6,12.6-51.1v-39.3h-123.4v39.3c0,25.6,0,45.5,12.6,51.1,2.2.8,3.1,1.7,3.1,2.5s-1.4.8-3.1.8c-2.5,0-11.2-.8-24.7-.8s-23.3.8-25.9.8-3.4-.3-3.4-1.1,2-1.4,3.9-2.8c12.4-7.9,13.2-32.6,13.2-50.6v-98.9Z"/>
      <path class="st0" d="M1225.8,721.1l-18,34c-5.6,10.4-12.4,25-12.4,36s2.8,9.3,7,12.4c3.4,2.5,7.9,3.1,7.9,4.8s-1.7,1.1-4.2,1.1c-6.7,0-13.2-.6-19.7-.6s-13.8.6-20.5.6-5.1,0-5.1-1.4,4.2-3.7,5.9-5.3c11.5-11,22.2-29.8,28.9-41.6l73.9-136c.6-1.1,1.1-1.7,2-1.7h.6c.8,0,2,1.1,2,1.7l82.9,159.6c3.9,7.6,10.7,15.5,17.7,20.2,2.5,1.7,4.2,2.5,4.2,3.1s-.3,1.4-2.8,1.4c-8.2,0-17.7-.6-26.4-.6s-20.5.6-28.4.6-2.2-.3-2.2-.8c0-1.7,2.5-2,5.3-3.4,2.5-1.4,5.1-3.9,5.1-10.1s-6.2-22.2-13.5-36.8l-18.3-37.1h-71.9ZM1263.2,653.4l-34,60.7h65.8l-31.8-60.7Z"/>
      <path class="st0" d="M1476.5,784.9c.3-1.4.8-2.8,1.7-2.8s1.1.3,1.4,1.1c4.5,15.2,14.3,22.5,30.1,22.5,28.9,0,30.6-39.3,30.6-59.9v-96.1c0-9-2.8-13.8-10.4-18.3-1.1-.8-2-1.4-2-2,0-1.1.8-1.7,4.5-1.7,3.4,0,9.6,1.1,20,1.1s13.2-1.1,21.1-1.1c1.1,0,3.4,0,3.4,1.4s-.8,1.4-2,2c-7.9,4.5-10.4,9.6-10.4,18.5v96.7c0,39.9-29.2,68-68.9,68s-18.3-1.4-26.1-5.6l7-23.9Z"/>
      <path class="st0" d="M1617.6,656.2c0-9-.6-21.1-10.4-24.7-1.1-.6-2-.8-2-2,0-1.7.8-1.7,4.5-1.7,3.4,0,9.6,1.1,20,1.1s13.2-1.1,19.7-1.1c1.1,0,4.8,0,4.8,1.4s-.6,2-2,2.2c-9.6,2.8-10.4,13.8-10.4,24.7v98.9c0,25.6,0,45.5,12.6,51.1,2.2.8,3.1,1.7,3.1,2.5s-1.4.8-3.1.8c-2.5,0-11.2-.8-24.7-.8s-23.3.8-25.9.8-3.4-.3-3.4-1.1,2-1.4,3.9-2.8c12.4-7.9,13.2-32.6,13.2-50.6v-98.9Z"/>
    </g>
    <g>
      <path class="st0" d="M1096,274.2v19.5c0,4.7-3.8,8.6-8.6,8.6h-254.8c-4.8,0-8.6-3.8-8.6-8.6v-19.5c0-4.7,3.8-8.6,8.6-8.6h254.8c4.7,0,8.6,3.8,8.6,8.6Z"/>
      <path class="st0" d="M870.5,483.1c20.3,23.8,50.8,26.5,61.4,27.5,27,2.4,68.4-4.5,83.7-33,1-1.9,13.9-26.6.7-41.5-11.2-12.6-35.4-12-42.1-2.8-7.4,10.2,9.7,26.8,2.2,36-6,7.6-24.6,5.3-36.3-2.7-13.9-9.6-20.2-28.9-14-43.9,6.4-15.6,23.7-20.7,27.9-22,18.2-5.4,25.6,3,69.8,11,30.5,5.5,43.7,4.6,55.8,0,3-1.1,5.7-2.4,8.2-3.8,3-1.6,5.6-3.3,7.9-4.9v126c0,4.7-3.8,8.6-8.6,8.6h-36.5c4.3-4.5,14.6-17,15-34.9.2-6.9-1.2-12.8-2.6-17.1-.9,5.5-2.7,11.3-5.7,17.1-6.1,11.6-15.5,19.5-24.9,24.8-12.1,6.9-26,10.1-39.9,10.1h-160.1c-4.7,0-8.6-3.8-8.6-8.6v-202.6c0-3.7,2.4-6.9,5.7-8,.9-.4,1.9-.5,2.9-.5h254.8c4.7,0,8.5,3.8,8.5,8.6v26.8c0,1.1-.3,2.8-1.1,4.6-1,2.2-2.8,4.6-6.8,6.9-10.8,6.2-21.9,6.1-21.9,6.1-57,4.8-83-29.2-137.1-24.9-12.9,1-29.3,2.6-44.7,13.7-33.6,24.3-45,87.3-13.9,123.6Z"/>
    </g>
  </g>
  <g>
    <g>
      <path class="st1" d="M1678,598.8h-7.3v-2.6h17.6v2.6h-7.3v18.6h-3v-18.6Z"/>
      <path class="st1" d="M1709.8,617.4v-15.5s-7.7,12.9-7.7,12.9h-1.4l-7.7-12.8v15.4h-2.9v-21.3h2.5l8.9,15,8.8-15h2.5v21.3s-2.9,0-2.9,0Z"/>
    </g>
    <path class="st1" d="M1691.7,637.1c-16.7,0-30.3-13.6-30.3-30.3s13.6-30.3,30.3-30.3,30.3,13.6,30.3,30.3-13.6,30.3-30.3,30.3ZM1691.7,578.6c-15.6,0-28.2,12.7-28.2,28.2s12.7,28.2,28.2,28.2,28.2-12.7,28.2-28.2-12.7-28.2-28.2-28.2Z"/>
  </g>
</svg>